<?xml version="1.0" encoding="UTF-8"?>
<svg xmlns="http://www.w3.org/2000/svg" width="20" height="24" viewBox="0 0 20 23" version="1.1">
<g id="surface1">
<path style=" stroke:none;fill-rule:nonzero;fill:rgb(100%,100%,100%);fill-opacity:1;" d="M 19.589844 17.925781 C 19.230469 18.726562 18.804688 19.46875 18.3125 20.148438 C 17.640625 21.074219 17.089844 21.714844 16.667969 22.074219 C 16.007812 22.65625 15.304688 22.957031 14.550781 22.972656 C 14.011719 22.972656 13.359375 22.824219 12.597656 22.523438 C 11.835938 22.222656 11.136719 22.074219 10.496094 22.074219 C 9.824219 22.074219 9.105469 22.222656 8.335938 22.523438 C 7.5625 22.824219 6.941406 22.980469 6.464844 22.996094 C 5.742188 23.027344 5.023438 22.71875 4.304688 22.074219 C 3.84375 21.683594 3.269531 21.019531 2.582031 20.078125 C 1.847656 19.074219 1.238281 17.910156 0.765625 16.578125 C 0.253906 15.144531 0 13.753906 0 12.410156 C 0 10.867188 0.34375 9.539062 1.03125 8.425781 C 1.574219 7.527344 2.292969 6.824219 3.195312 6.304688 C 4.097656 5.785156 5.070312 5.523438 6.121094 5.503906 C 6.695312 5.503906 7.449219 5.675781 8.382812 6.015625 C 9.316406 6.355469 9.914062 6.527344 10.175781 6.527344 C 10.375 6.527344 11.039062 6.324219 12.167969 5.925781 C 13.234375 5.554688 14.132812 5.398438 14.871094 5.460938 C 16.871094 5.617188 18.371094 6.378906 19.371094 7.753906 C 17.582031 8.800781 16.699219 10.269531 16.714844 12.15625 C 16.730469 13.621094 17.28125 14.84375 18.363281 15.8125 C 18.851562 16.261719 19.398438 16.609375 20.007812 16.859375 C 19.875 17.226562 19.738281 17.582031 19.589844 17.925781 Z M 15.003906 0.460938 C 15.003906 1.609375 14.570312 2.683594 13.707031 3.679688 C 12.660156 4.859375 11.398438 5.542969 10.03125 5.433594 C 10.011719 5.296875 10.003906 5.152344 10.003906 5 C 10.003906 3.894531 10.5 2.714844 11.378906 1.746094 C 11.820312 1.257812 12.378906 0.851562 13.058594 0.527344 C 13.738281 0.207031 14.378906 0.03125 14.980469 0 C 14.996094 0.152344 15.003906 0.308594 15.003906 0.460938 Z M 15.003906 0.460938 "/>
</g>
</svg>
