<svg width="122" height="58" viewBox="0 0 122 58" fill="none" xmlns="http://www.w3.org/2000/svg">
<path d="M15.3424 4.33774C15.7839 4.1207 16.2785 4 16.7971 4H105.203C105.722 4 106.218 4.12112 106.66 4.33885C103.214 10.7673 100.569 16.4098 98.5875 21.9504C100.259 25.6871 101.733 27.7065 104.34 30.0177C105.466 31.0157 106.175 32.4677 106.175 34.0526V37.1606C106.175 37.546 106.135 37.9821 106.013 38.4396C105.621 39.9096 104.945 41.2337 104.097 42.6736C105.695 43.3742 106.794 44.9725 106.794 46.8V56.1333C106.794 56.7963 106.65 57.4292 106.389 58L122 58L112.377 6.01093C111.742 2.52892 108.724 0 105.203 0H16.7971C13.2763 0 10.2581 2.52892 9.62318 6.01093L0 58L16.3185 58C16.0577 57.4292 15.913 56.7963 15.913 56.1333V46.8C15.913 44.9726 17.0123 43.3742 18.6104 42.6736C17.7619 41.2337 17.0865 39.9097 16.6944 38.4396C16.5724 37.9821 16.5319 37.546 16.5319 37.1606V34.0526C16.5319 32.4677 17.2415 31.0157 18.3672 30.0177C20.7648 27.8919 22.2041 26.013 23.7205 22.8176C21.7074 16.9967 18.9683 11.1024 15.3424 4.33774Z" fill="#E0F573"/>
<path d="M24.8549 26.3497C23.5758 28.528 22.1513 30.1956 20.1324 31.9856C19.5404 32.5104 19.184 33.2591 19.184 34.0526V37.1606C19.184 37.364 19.2056 37.5673 19.258 37.7637C19.655 39.2524 20.3999 40.5356 21.5664 42.4422L21.8909 42.9717C22.0869 43.2911 22.2939 43.6285 22.5116 43.9859C22.7645 44.4014 22.8971 44.8798 22.8971 45.367V49.7333C22.8971 50.1015 22.9713 50.4522 23.1054 50.7712C23.4299 51.5427 24.1053 52.1287 24.9304 52.327C24.9742 52.3375 25.0185 52.347 25.0631 52.3553C25.2207 52.3847 25.3832 52.4 25.5493 52.4H28.4671C28.2758 43.6928 27.4773 36.5213 25.7453 29.6069C25.4717 28.5147 25.1753 27.4307 24.8549 26.3497Z" fill="#E0F573"/>
<path d="M28.4797 53.0222H25.0631C25.0186 53.0222 24.9744 53.0234 24.9304 53.0257C24.0474 53.0726 23.2871 53.5847 22.8875 54.3228C22.6963 54.6759 22.5877 55.0808 22.5877 55.5111C22.5877 55.726 22.6148 55.9345 22.6657 56.1333C22.8985 57.0428 23.6297 57.7511 24.5491 57.9463C24.7145 57.9814 24.886 57.9999 25.0618 58C25.0614 58 25.0622 58 25.0618 58H28.5109C28.5192 56.2833 28.5094 54.6266 28.4797 53.0222Z" fill="#E0F573"/>
<path d="M20.424 58C20.4755 57.9999 20.5266 57.9978 20.577 57.9936C21.5297 57.9142 22.2783 57.1117 22.2783 56.1333V46.8C22.2783 46.2243 22.019 45.7094 21.6116 45.367C21.395 45.1851 21.1367 45.0518 20.8531 44.984C20.7147 44.9509 20.5702 44.9333 20.4217 44.9333C20.2819 44.9333 20.1457 44.9489 20.0148 44.9783C19.1852 45.1649 18.5652 45.9096 18.5652 46.8V56.1333C18.5652 57.1635 19.3952 57.9988 20.4195 58C20.4202 58 20.4233 58 20.424 58C20.4248 58 20.4233 58 20.424 58Z" fill="#E0F573"/>
<path d="M102.288 58C103.312 57.9987 104.142 57.1635 104.142 56.1333V46.8C104.142 45.9096 103.522 45.1648 102.692 44.9783C102.561 44.9489 102.425 44.9333 102.286 44.9333C102.137 44.9333 101.993 44.9509 101.854 44.984C101.571 45.0518 101.312 45.1851 101.096 45.367C100.688 45.7094 100.429 46.2243 100.429 46.8V56.1333C100.429 57.1117 101.178 57.9143 102.13 57.9936C102.181 57.9978 102.232 57.9999 102.283 58C102.284 58 102.287 58 102.288 58C102.289 58 102.287 58 102.288 58Z" fill="#E0F573"/>
<path d="M97.6458 58C97.8215 57.9999 97.9928 57.9814 98.1581 57.9463C99.0776 57.7511 99.8088 57.0428 100.042 56.1333C100.093 55.9345 100.12 55.726 100.12 55.5111C100.12 55.0808 100.011 54.6759 99.8198 54.3228C99.4201 53.5847 98.6598 53.0726 97.7768 53.0257C97.7329 53.0234 97.6887 53.0222 97.6442 53.0222H93.5231C93.4934 54.6266 93.4837 56.2833 93.492 58H97.6458C97.6463 58 97.6453 58 97.6458 58Z" fill="#E0F573"/>
<path d="M93.5357 52.4H97.158C97.3241 52.4 97.4866 52.3846 97.6442 52.3553C97.6888 52.347 97.733 52.3375 97.7768 52.327C98.6019 52.1287 99.2773 51.5427 99.6018 50.7711C99.7359 50.4521 99.8101 50.1014 99.8101 49.7333V45.367C99.8101 44.8798 99.9427 44.4014 100.196 43.9859C100.413 43.6285 100.62 43.2918 100.816 42.9724L101.141 42.4422C102.307 40.5356 103.052 39.2524 103.449 37.7637C103.502 37.5673 103.523 37.364 103.523 37.1606V34.0526C103.523 33.2591 103.167 32.5104 102.575 31.9856C100.312 29.9791 98.7956 28.1265 97.3938 25.5358C96.9779 26.8868 96.5999 28.2405 96.2576 29.6069C94.5256 36.5213 93.7271 43.6928 93.5357 52.4Z" fill="#E0F573"/>
<path d="M73.4009 31.9856C70.3036 29.2395 68.6055 26.7816 66.6846 22.3257C66.2549 21.3289 65.2877 20.6667 64.2072 20.6667H58.5C57.4195 20.6667 56.4523 21.3289 56.0226 22.3257C54.1017 26.7816 52.4036 29.2395 49.3063 31.9856C48.7143 32.5105 48.358 33.2591 48.358 34.0526V37.1606C48.358 37.364 48.3795 37.5673 48.4319 37.7638C48.9273 39.621 49.964 41.1586 51.6855 43.9859C51.9385 44.4014 52.071 44.8798 52.071 45.367V49.7333C52.071 51.2061 53.2584 52.4 54.7232 52.4H67.984C69.4488 52.4 70.6362 51.2061 70.6362 49.7333V45.367C70.6362 44.8798 70.7688 44.4014 71.0217 43.9859C72.7432 41.1586 73.78 39.621 74.2753 37.7638C74.3277 37.5673 74.3493 37.364 74.3493 37.1606V34.0526C74.3493 33.2591 73.9929 32.5105 73.4009 31.9856Z" fill="#E0F573"/>
<path d="M71.2551 46.8C71.2551 45.7691 72.0863 44.9333 73.1116 44.9333C74.1369 44.9333 74.9681 45.7691 74.9681 46.8V56.1333C74.9681 57.1643 74.1369 58 73.1116 58C72.0863 58 71.2551 57.1643 71.2551 56.1333V46.8Z" fill="#E0F573"/>
<path d="M47.7391 46.8C47.7391 45.7691 48.5703 44.9333 49.5957 44.9333C50.621 44.9333 51.4522 45.7691 51.4522 46.8V56.1333C51.4522 57.1643 50.621 58 49.5957 58C48.5703 58 47.7391 57.1643 47.7391 56.1333V46.8Z" fill="#E0F573"/>
<path d="M54.237 58C52.8699 58 51.7616 56.8857 51.7616 55.5111C51.7616 54.1365 52.8699 53.0222 54.237 53.0222H68.4703C69.8374 53.0222 70.9457 54.1365 70.9457 55.5111C70.9457 56.8857 69.8374 58 68.4703 58H54.237Z" fill="#E0F573"/>
<path d="M102.575 31.9856C99.4775 29.2395 97.7794 26.7816 95.8585 22.3257C95.4288 21.3289 94.4617 20.6667 93.3811 20.6667H87.6739C86.5934 20.6667 85.6262 21.3289 85.1965 22.3257C83.2756 26.7816 81.5776 29.2395 78.4802 31.9856C77.8883 32.5105 77.5319 33.2591 77.5319 34.0526V37.1606C77.5319 37.364 77.5534 37.5673 77.6058 37.7638C78.1012 39.621 79.138 41.1586 80.8594 43.9859C81.1124 44.4014 81.2449 44.8798 81.2449 45.367V49.7333C81.2449 51.2061 82.4323 52.4 83.8971 52.4L97.158 52.4C98.6227 52.4 99.8101 51.2061 99.8101 49.7333V45.367C99.8101 44.8798 99.9427 44.4014 100.196 43.9859C101.917 41.1586 102.954 39.621 103.449 37.7637C103.502 37.5673 103.523 37.364 103.523 37.1606V34.0526C103.523 33.2591 103.167 32.5104 102.575 31.9856Z" fill="#E0F573"/>
<path d="M100.429 46.8C100.429 45.7691 101.26 44.9333 102.286 44.9333C103.311 44.9333 104.142 45.7691 104.142 46.8V56.1333C104.142 57.1643 103.308 58 102.283 58C101.258 58 100.429 57.1643 100.429 56.1333V46.8Z" fill="#E0F573"/>
<path d="M76.913 46.8C76.913 45.7691 77.7442 44.9333 78.7696 44.9333C79.7949 44.9333 80.6261 45.7691 80.6261 46.8V56.1333C80.6261 57.1643 79.7949 58 78.7696 58C77.7442 58 76.913 57.1643 76.913 56.1333V46.8Z" fill="#E0F573"/>
<path d="M83.4109 58C82.0438 58 80.9355 56.8857 80.9355 55.5111C80.9355 54.1365 82.0438 53.0222 83.4109 53.0222L97.6442 53.0222C99.0113 53.0222 100.12 54.1365 100.12 55.5111C100.12 56.8857 99.0129 58 97.6458 58L83.4109 58Z" fill="#E0F573"/>
<path d="M44.227 31.9856C41.1297 29.2395 39.4316 26.7816 37.5107 22.3257C37.081 21.3289 36.1138 20.6667 35.0333 20.6667H29.3261C28.2456 20.6667 27.2784 21.3289 26.8487 22.3257C24.9278 26.7816 23.2297 29.2395 20.1324 31.9856C19.5404 32.5104 19.184 33.2591 19.184 34.0526V37.1606C19.184 37.364 19.2056 37.5673 19.258 37.7637C19.7533 39.621 20.7901 41.1586 22.5116 43.9859C22.7645 44.4014 22.8971 44.8798 22.8971 45.367V49.7333C22.8971 51.2061 24.0845 52.4 25.5493 52.4L38.8101 52.4C40.2749 52.4 41.4623 51.2061 41.4623 49.7333V45.367C41.4623 44.8798 41.5948 44.4014 41.8478 43.9859C43.5692 41.1586 44.606 39.621 45.1014 37.7638C45.1538 37.5673 45.1753 37.364 45.1753 37.1606V34.0526C45.1753 33.2591 44.819 32.5105 44.227 31.9856Z" fill="#E0F573"/>
<path d="M42.0812 46.8C42.0812 45.7691 42.9124 44.9333 43.9377 44.9333C44.963 44.9333 45.7942 45.7691 45.7942 46.8V56.1333C45.7942 57.1643 44.963 58 43.9377 58C42.9124 58 42.0812 57.1643 42.0812 56.1333V46.8Z" fill="#E0F573"/>
<path d="M18.5652 46.8C18.5652 45.7691 19.3964 44.9333 20.4217 44.9333C21.4471 44.9333 22.2783 45.7691 22.2783 46.8V56.1333C22.2783 57.1643 21.4493 58 20.424 58C19.3987 58 18.5652 57.1643 18.5652 56.1333V46.8Z" fill="#E0F573"/>
<path d="M25.0618 58C23.6947 58 22.5877 56.8857 22.5877 55.5111C22.5877 54.1365 23.696 53.0222 25.0631 53.0222L39.2964 53.0222C40.6635 53.0222 41.7718 54.1365 41.7718 55.5111C41.7718 56.8857 40.6635 58 39.2964 58L25.0618 58Z" fill="#E0F573"/>
</svg>
