<svg width="178" height="112" viewBox="0 0 178 112" fill="none" xmlns="http://www.w3.org/2000/svg">
<path d="M37.4598 4.93038C37.9582 4.68369 38.5165 4.5465 39.1019 4.5465H138.898C139.484 4.5465 140.044 4.68416 140.543 4.93165C136.653 12.2384 133.668 18.6518 131.43 24.9493C133.317 29.1965 134.981 31.4919 137.924 34.1189C139.195 35.2533 139.996 36.9036 139.996 38.7051V42.2376C139.996 42.6757 139.95 43.1714 139.812 43.6914C139.37 45.3623 138.607 46.8673 137.649 48.5039C139.454 49.3002 140.694 51.1169 140.694 53.194V63.8025C140.694 64.5561 140.531 65.2755 140.237 65.9242L157.859 65.9242L146.996 6.83217C146.28 2.87443 142.872 0 138.898 0H39.1019C35.1275 0 31.7204 2.87443 31.0037 6.83217L20.1407 65.9242L38.5616 65.9242C38.2673 65.2755 38.104 64.5561 38.104 63.8025V53.194C38.104 51.1169 39.3449 49.3002 41.1489 48.5039C40.1911 46.8673 39.4286 45.3623 38.986 43.6914C38.8483 43.1714 38.8025 42.6758 38.8025 42.2376V38.7051C38.8025 36.9036 39.6035 35.2533 40.8743 34.1189C43.5809 31.7026 45.2056 29.567 46.9173 25.9351C44.6449 19.3188 41.5528 12.6192 37.4598 4.93038Z" fill="#E0F573"/>
<path d="M48.1979 29.9497C46.754 32.4257 45.146 34.3211 42.8669 36.3557C42.1987 36.9522 41.7964 37.8032 41.7964 38.7051V42.2376C41.7964 42.4688 41.8207 42.6999 41.8799 42.9232C42.3281 44.6152 43.1689 46.0738 44.4857 48.2409L44.852 48.8427C45.0733 49.2057 45.307 49.5892 45.5526 49.9954C45.8382 50.4677 45.9878 51.0115 45.9878 51.5653V56.5281C45.9878 56.9466 46.0716 57.3452 46.223 57.7078C46.5894 58.5847 47.3517 59.2508 48.2832 59.4762C48.3326 59.4882 48.3825 59.4989 48.4329 59.5083C48.6108 59.5417 48.7943 59.5591 48.9817 59.5591H52.2755C52.0595 49.6624 51.1582 41.5111 49.203 33.6519C48.8942 32.4105 48.5595 31.1784 48.1979 29.9497Z" fill="#E0F573"/>
<path d="M52.2897 60.2664H48.4329C48.3827 60.2664 48.3328 60.2677 48.2832 60.2704C47.2864 60.3236 46.4281 60.9058 45.977 61.7447C45.7612 62.146 45.6386 62.6062 45.6386 63.0953C45.6386 63.3395 45.6692 63.5765 45.7266 63.8025C45.9894 64.8363 46.8149 65.6413 47.8527 65.8632C48.0395 65.9031 48.233 65.9241 48.4314 65.9242C48.431 65.9242 48.4319 65.9242 48.4314 65.9242H52.3249C52.3343 63.9729 52.3233 62.0899 52.2897 60.2664Z" fill="#E0F573"/>
<path d="M43.1961 65.9242C43.2543 65.9242 43.3119 65.9217 43.3689 65.9169C44.4443 65.8268 45.2893 64.9146 45.2893 63.8025V53.194C45.2893 52.5397 44.9967 51.9545 44.5367 51.5653C44.2923 51.3585 44.0006 51.207 43.6805 51.1299C43.5242 51.0923 43.3612 51.0723 43.1936 51.0723C43.0358 51.0723 42.882 51.09 42.7342 51.1235C41.7977 51.3355 41.0979 52.182 41.0979 53.194V63.8025C41.0979 64.9735 42.0348 65.9228 43.191 65.9242C43.1919 65.9242 43.1953 65.9242 43.1961 65.9242C43.197 65.9242 43.1953 65.9242 43.1961 65.9242Z" fill="#E0F573"/>
<path d="M135.608 65.9242C136.764 65.9228 137.701 64.9734 137.701 63.8025V53.194C137.701 52.182 137.001 51.3355 136.064 51.1235C135.916 51.09 135.763 51.0723 135.605 51.0723C135.437 51.0723 135.274 51.0923 135.118 51.1299C134.798 51.207 134.506 51.3585 134.262 51.5653C133.802 51.9545 133.509 52.5397 133.509 53.194V63.8025C133.509 64.9146 134.354 65.8268 135.43 65.9169C135.486 65.9217 135.544 65.9242 135.602 65.9242C135.603 65.9242 135.607 65.9242 135.608 65.9242C135.608 65.9242 135.607 65.9242 135.608 65.9242Z" fill="#E0F573"/>
<path d="M130.367 65.9242C130.566 65.9241 130.759 65.9031 130.946 65.8632C131.984 65.6413 132.809 64.8363 133.072 63.8025C133.129 63.5765 133.16 63.3395 133.16 63.0953C133.16 62.6062 133.037 62.146 132.821 61.7447C132.37 60.9057 131.512 60.3236 130.515 60.2704C130.466 60.2677 130.416 60.2664 130.366 60.2664H125.713C125.68 62.0899 125.669 63.9729 125.678 65.9242H130.367C130.368 65.9242 130.367 65.9242 130.367 65.9242Z" fill="#E0F573"/>
<path d="M125.728 59.5591H129.817C130.004 59.5591 130.188 59.5417 130.366 59.5083C130.416 59.4989 130.466 59.4881 130.515 59.4762C131.447 59.2508 132.209 58.5847 132.575 57.7077C132.727 57.3452 132.81 56.9466 132.81 56.5281V51.5653C132.81 51.0115 132.96 50.4677 133.246 49.9954C133.491 49.5893 133.725 49.2065 133.946 48.8435L134.313 48.2409C135.629 46.0738 136.47 44.6152 136.918 42.9232C136.978 42.6999 137.002 42.4688 137.002 42.2376V38.7051C137.002 37.8032 136.6 36.9522 135.931 36.3557C133.377 34.075 131.665 31.9692 130.083 29.0247C129.613 30.5602 129.187 32.0988 128.8 33.6519C126.845 41.5111 125.944 49.6624 125.728 59.5591Z" fill="#E0F573"/>
<path d="M102.999 36.3557C99.5023 33.2344 97.5854 30.4407 95.417 25.3759C94.932 24.2429 93.8402 23.4902 92.6204 23.4902H86.1779C84.9581 23.4902 83.8664 24.2429 83.3813 25.3759C81.2129 30.4407 79.2961 33.2344 75.7996 36.3557C75.1314 36.9522 74.7291 37.8032 74.7291 38.7051V42.2376C74.7291 42.4688 74.7535 42.6999 74.8126 42.9232C75.3718 45.0342 76.5422 46.7818 78.4854 49.9955C78.771 50.4678 78.9206 51.0115 78.9206 51.5653V56.5281C78.9206 58.2021 80.261 59.5591 81.9145 59.5591H96.8839C98.5373 59.5591 99.8777 58.2021 99.8777 56.5281V51.5653C99.8777 51.0115 100.027 50.4678 100.313 49.9955C102.256 46.7818 103.427 45.0342 103.986 42.9232C104.045 42.6999 104.069 42.4688 104.069 42.2376V38.7051C104.069 37.8032 103.667 36.9522 102.999 36.3557Z" fill="#E0F573"/>
<path d="M100.576 53.194C100.576 52.0223 101.515 51.0723 102.672 51.0723C103.83 51.0723 104.768 52.0223 104.768 53.194V63.8025C104.768 64.9743 103.83 65.9242 102.672 65.9242C101.515 65.9242 100.576 64.9743 100.576 63.8025V53.194Z" fill="#E0F573"/>
<path d="M74.0306 53.194C74.0306 52.0223 74.9689 51.0723 76.1263 51.0723C77.2837 51.0723 78.222 52.0223 78.222 53.194V63.8025C78.222 64.9743 77.2837 65.9242 76.1263 65.9242C74.9689 65.9242 74.0306 64.9743 74.0306 63.8025V53.194Z" fill="#E0F573"/>
<path d="M81.3656 65.9242C79.8224 65.9242 78.5713 64.6577 78.5713 63.0953C78.5713 61.5329 79.8224 60.2664 81.3656 60.2664H97.4328C98.976 60.2664 100.227 61.5329 100.227 63.0953C100.227 64.6577 98.976 65.9242 97.4328 65.9242H81.3656Z" fill="#E0F573"/>
<path d="M135.931 36.3557C132.435 33.2344 130.518 30.4407 128.35 25.3759C127.865 24.2429 126.773 23.4902 125.553 23.4902H119.111C117.891 23.4902 116.799 24.2429 116.314 25.3759C114.146 30.4407 112.229 33.2344 108.732 36.3557C108.064 36.9522 107.662 37.8032 107.662 38.7051V42.2376C107.662 42.4688 107.686 42.6999 107.745 42.9232C108.304 45.0342 109.475 46.7818 111.418 49.9955C111.704 50.4678 111.853 51.0115 111.853 51.5653V56.5281C111.853 58.2021 113.194 59.5591 114.847 59.5591L129.817 59.5591C131.47 59.5591 132.81 58.2021 132.81 56.5281V51.5653C132.81 51.0115 132.96 50.4677 133.246 49.9954C135.189 46.7818 136.359 45.0342 136.918 42.9232C136.978 42.6999 137.002 42.4688 137.002 42.2376V38.7051C137.002 37.8032 136.6 36.9522 135.931 36.3557Z" fill="#E0F573"/>
<path d="M133.509 53.194C133.509 52.0223 134.447 51.0723 135.605 51.0723C136.762 51.0723 137.701 52.0223 137.701 53.194V63.8025C137.701 64.9743 136.76 65.9242 135.602 65.9242C134.445 65.9242 133.509 64.9743 133.509 63.8025V53.194Z" fill="#E0F573"/>
<path d="M106.963 53.194C106.963 52.0223 107.902 51.0723 109.059 51.0723C110.216 51.0723 111.155 52.0223 111.155 53.194V63.8025C111.155 64.9743 110.216 65.9242 109.059 65.9242C107.902 65.9242 106.963 64.9743 106.963 63.8025V53.194Z" fill="#E0F573"/>
<path d="M114.298 65.9242C112.755 65.9242 111.504 64.6577 111.504 63.0953C111.504 61.5329 112.755 60.2664 114.298 60.2664L130.366 60.2664C131.909 60.2664 133.16 61.5329 133.16 63.0953C133.16 64.6577 131.911 65.9242 130.367 65.9242L114.298 65.9242Z" fill="#E0F573"/>
<path d="M70.066 36.3557C66.5695 33.2344 64.6527 30.4407 62.4843 25.3759C61.9992 24.2429 60.9075 23.4902 59.6877 23.4902H53.2452C52.0254 23.4902 50.9336 24.2429 50.4486 25.3759C48.2802 30.4407 46.3633 33.2344 42.8669 36.3557C42.1987 36.9522 41.7964 37.8032 41.7964 38.7051V42.2376C41.7964 42.4688 41.8207 42.6999 41.8799 42.9232C42.4391 45.0342 43.6094 46.7818 45.5526 49.9954C45.8382 50.4677 45.9878 51.0115 45.9878 51.5653V56.5281C45.9878 58.2021 47.3283 59.5591 48.9817 59.5591L63.9511 59.5591C65.6046 59.5591 66.945 58.2021 66.945 56.5281V51.5653C66.945 51.0115 67.0946 50.4678 67.3802 49.9955C69.3234 46.7818 70.4938 45.0342 71.053 42.9232C71.1121 42.6999 71.1365 42.4688 71.1365 42.2376V38.7051C71.1365 37.8032 70.7342 36.9522 70.066 36.3557Z" fill="#E0F573"/>
<path d="M67.6436 53.194C67.6436 52.0223 68.5819 51.0723 69.7394 51.0723C70.8968 51.0723 71.8351 52.0223 71.8351 53.194V63.8025C71.8351 64.9743 70.8968 65.9242 69.7394 65.9242C68.5819 65.9242 67.6436 64.9743 67.6436 63.8025V53.194Z" fill="#E0F573"/>
<path d="M41.0979 53.194C41.0979 52.0223 42.0361 51.0723 43.1936 51.0723C44.351 51.0723 45.2893 52.0223 45.2893 53.194V63.8025C45.2893 64.9743 44.3536 65.9242 43.1961 65.9242C42.0387 65.9242 41.0979 64.9743 41.0979 63.8025V53.194Z" fill="#E0F573"/>
<path d="M48.4314 65.9242C46.8882 65.9242 45.6386 64.6577 45.6386 63.0953C45.6386 61.5329 46.8897 60.2664 48.4329 60.2664L64.5001 60.2664C66.0433 60.2664 67.2944 61.5329 67.2944 63.0953C67.2944 64.6577 66.0433 65.9242 64.5001 65.9242L48.4314 65.9242Z" fill="#E0F573"/>
<path d="M10.1987 85.8345C15.8535 85.8345 19.8926 88.9641 19.8926 93.479H15.0457C14.9447 91.2215 12.9756 89.6824 10.0978 89.6824C7.47235 89.6824 5.55377 91.0163 5.55377 92.9146C5.55377 95.5312 7.82577 95.9416 10.7036 96.5059C14.2379 97.1729 20.4985 98.2503 20.4985 104.304C20.4985 108.87 16.2574 112 10.2997 112C4.29155 112 0.0504888 108.768 0 104.099H5.04888C5.14986 106.51 7.37137 108.101 10.4512 108.101C13.3291 108.101 15.3991 106.716 15.3991 104.612C15.3991 101.996 12.9251 101.585 10.0978 101.072C6.36159 100.508 0.4544 99.379 0.4544 93.4277C0.4544 88.8615 4.39253 85.8345 10.1987 85.8345Z" fill="#E0F573"/>
<path d="M29.0429 79.4727C29.0429 81.2684 27.6797 82.551 25.7611 82.551C23.7921 82.551 22.4794 81.2684 22.4794 79.4727C22.4794 77.6258 23.7921 76.3945 25.7611 76.3945C27.6797 76.3945 29.0429 77.6258 29.0429 79.4727ZM23.1862 86.2963H28.3361V111.538H23.1862V86.2963Z" fill="#E0F573"/>
<path d="M51.8418 76.0353H56.9916V98.9173C56.9916 106.51 51.4884 112 43.8141 112C36.1398 112 30.6365 106.51 30.6365 98.7634C30.6365 91.3242 35.8368 85.8345 43.1577 85.8345C46.7929 85.8345 49.8727 87.3737 51.8418 89.785V76.0353ZM43.8645 107.434C48.5095 107.434 51.8418 103.894 51.8418 98.9173C51.8418 93.992 48.5095 90.4007 43.8645 90.4007C39.2701 90.4007 35.9378 93.992 35.9378 98.9173C35.9378 103.894 39.2701 107.434 43.8645 107.434Z" fill="#E0F573"/>
<path d="M84.9416 98.9686C84.9416 99.4816 84.8911 100.046 84.7901 100.559H63.5848C64.2411 104.766 67.4724 107.69 71.764 107.69C75.2982 107.69 78.3275 105.433 79.2868 102.406H84.5377C83.124 107.998 77.8226 112 71.7135 112C64.0392 112 58.4349 106.51 58.4349 98.9173C58.4349 91.3242 64.0392 85.8345 71.7135 85.8345C79.3878 85.8345 84.8911 91.3242 84.9416 98.9686ZM71.764 90.1441C67.7249 90.1441 64.6451 92.7607 63.7362 96.5059H79.9432C79.0849 92.7607 75.8536 90.1441 71.764 90.1441Z" fill="#E0F573"/>
<path d="M87.2538 76.0353H92.4037V111.538H87.2538V76.0353Z" fill="#E0F573"/>
<path d="M102.074 79.4727C102.074 81.2684 100.711 82.551 98.7925 82.551C96.8234 82.551 95.5107 81.2684 95.5107 79.4727C95.5107 77.6258 96.8234 76.3945 98.7925 76.3945C100.711 76.3945 102.074 77.6258 102.074 79.4727ZM96.2175 86.2963H101.367V111.538H96.2175V86.2963Z" fill="#E0F573"/>
<path d="M104.829 111.538V96.7625C104.829 90.2468 109.424 85.8345 116.139 85.8345C122.904 85.8345 127.549 90.2468 127.549 96.7625V111.538H122.349V96.7625C122.349 92.812 119.925 90.1954 116.189 90.1954C112.453 90.1954 110.029 92.812 110.029 96.7625V111.538H104.829Z" fill="#E0F573"/>
<path d="M156.149 98.9686C156.149 99.4816 156.098 100.046 155.997 100.559H134.792C135.448 104.766 138.679 107.69 142.971 107.69C146.505 107.69 149.535 105.433 150.494 102.406H155.745C154.331 107.998 149.03 112 142.921 112C135.246 112 129.642 106.51 129.642 98.9173C129.642 91.3242 135.246 85.8345 142.921 85.8345C150.595 85.8345 156.098 91.3242 156.149 98.9686ZM142.971 90.1441C138.932 90.1441 135.852 92.7607 134.943 96.5059H151.15C150.292 92.7607 147.061 90.1441 142.971 90.1441Z" fill="#E0F573"/>
<path d="M167.7 85.8345C173.355 85.8345 177.394 88.9641 177.394 93.479H172.547C172.446 91.2215 170.477 89.6824 167.599 89.6824C164.974 89.6824 163.055 91.0163 163.055 92.9146C163.055 95.5312 165.327 95.9416 168.205 96.5059C171.739 97.1729 178 98.2503 178 104.304C178 108.87 173.759 112 167.801 112C161.793 112 157.552 108.768 157.502 104.099H162.55C162.651 106.51 164.873 108.101 167.953 108.101C170.831 108.101 172.901 106.716 172.901 104.612C172.901 101.996 170.427 101.585 167.599 101.072C163.863 100.508 157.956 99.379 157.956 93.4277C157.956 88.8615 161.894 85.8345 167.7 85.8345Z" fill="#E0F573"/>
</svg>
