<svg width="28" height="28" viewBox="0 0 28 28" fill="none" xmlns="http://www.w3.org/2000/svg">
<path fill-rule="evenodd" clip-rule="evenodd" d="M6.75 13.75C6.75 13.1977 7.19772 12.75 7.75 12.75H19.75C20.3023 12.75 20.75 13.1977 20.75 13.75C20.75 14.3023 20.3023 14.75 19.75 14.75H7.75C7.19772 14.75 6.75 14.3023 6.75 13.75Z" fill="black"/>
<path fill-rule="evenodd" clip-rule="evenodd" d="M0 7C0 3.13401 3.13401 0 7 0H20.5C24.366 0 27.5 3.13401 27.5 7V20.5C27.5 24.366 24.366 27.5 20.5 27.5H7C3.13401 27.5 0 24.366 0 20.5V7ZM7 2C4.23858 2 2 4.23858 2 7V20.5C2 23.2614 4.23858 25.5 7 25.5H20.5C23.2614 25.5 25.5 23.2614 25.5 20.5V7C25.5 4.23858 23.2614 2 20.5 2H7Z" fill="black"/>
<path fill-rule="evenodd" clip-rule="evenodd" d="M13.75 6.75C14.3023 6.75 14.75 7.19772 14.75 7.75V19.75C14.75 20.3023 14.3023 20.75 13.75 20.75C13.1977 20.75 12.75 20.3023 12.75 19.75V7.75C12.75 7.19772 13.1977 6.75 13.75 6.75Z" fill="black"/>
</svg>
