<svg width="29" height="24" viewBox="0 0 29 24" fill="none" xmlns="http://www.w3.org/2000/svg">
<path fill-rule="evenodd" clip-rule="evenodd" d="M11.5 12C10.3954 12 9.5 12.8954 9.5 14V22H7.5V14C7.5 11.7909 9.29086 10 11.5 10H17C19.2091 10 21 11.7909 21 14V22H19V14C19 12.8954 18.1046 12 17 12H11.5Z" fill="black"/>
<path fill-rule="evenodd" clip-rule="evenodd" d="M11.5 12C10.3954 12 9.5 12.8954 9.5 14V22H7.5V14C7.5 11.7909 9.29086 10 11.5 10H17C19.2091 10 21 11.7909 21 14V22H19V14C19 12.8954 18.1046 12 17 12H11.5Z" fill="black"/>
<path fill-rule="evenodd" clip-rule="evenodd" d="M8.5 12.2908C8.03678 12.1033 7.53045 12 7 12H4C1.79086 12 0 13.7909 0 16V19.5C0 21.7091 1.79086 23.5 4 23.5H24.5C26.7091 23.5 28.5 21.7091 28.5 19.5V16C28.5 13.7909 26.7091 12 24.5 12H21.5C21.1547 12 20.8196 12.0438 20.5 12.126V14.2676C20.7942 14.0974 21.1357 14 21.5 14H24.5C25.6046 14 26.5 14.8954 26.5 16V19.5C26.5 20.6046 25.6046 21.5 24.5 21.5H4C2.89543 21.5 2 20.6046 2 19.5V16C2 14.8954 2.89543 14 4 14H7C7.59735 14 8.13353 14.2619 8.5 14.6771V12.2908Z" fill="black"/>
<path fill-rule="evenodd" clip-rule="evenodd" d="M14.25 2C12.7312 2 11.5 3.23122 11.5 4.75C11.5 6.26878 12.7312 7.5 14.25 7.5C15.7688 7.5 17 6.26878 17 4.75C17 3.23122 15.7688 2 14.25 2ZM9.5 4.75C9.5 2.12665 11.6266 0 14.25 0C16.8734 0 19 2.12665 19 4.75C19 7.37335 16.8734 9.5 14.25 9.5C11.6266 9.5 9.5 7.37335 9.5 4.75Z" fill="black"/>
<path fill-rule="evenodd" clip-rule="evenodd" d="M22.75 6.5C21.9216 6.5 21.25 7.17157 21.25 8C21.25 8.82843 21.9216 9.5 22.75 9.5C23.5784 9.5 24.25 8.82843 24.25 8C24.25 7.17157 23.5784 6.5 22.75 6.5ZM19.25 8C19.25 6.067 20.817 4.5 22.75 4.5C24.683 4.5 26.25 6.067 26.25 8C26.25 9.933 24.683 11.5 22.75 11.5C20.817 11.5 19.25 9.933 19.25 8Z" fill="black"/>
<path fill-rule="evenodd" clip-rule="evenodd" d="M5.75 6.5C4.92157 6.5 4.25 7.17157 4.25 8C4.25 8.82843 4.92157 9.5 5.75 9.5C6.57843 9.5 7.25 8.82843 7.25 8C7.25 7.17157 6.57843 6.5 5.75 6.5ZM2.25 8C2.25 6.067 3.817 4.5 5.75 4.5C7.683 4.5 9.25 6.067 9.25 8C9.25 9.933 7.683 11.5 5.75 11.5C3.817 11.5 2.25 9.933 2.25 8Z" fill="black"/>
</svg>
