<svg width="22" height="30" viewBox="0 0 22 30" fill="none" xmlns="http://www.w3.org/2000/svg">
<path fill-rule="evenodd" clip-rule="evenodd" d="M7 5C7 3.89543 7.89543 3 9 3H13C14.1046 3 15 3.89543 15 5V7C15 8.10457 14.1046 9 13 9H9C7.89543 9 7 8.10457 7 7V5ZM9 5V7H13V5H9Z" fill="black"/>
<path fill-rule="evenodd" clip-rule="evenodd" d="M3 5C3 3.89543 3.89543 3 5 3H17C18.1046 3 19 3.89543 19 5V25C19 26.1046 18.1046 27 17 27H5C3.89543 27 3 26.1046 3 25V5ZM5 5V25H17V5H5Z" fill="black"/>
<path fill-rule="evenodd" clip-rule="evenodd" d="M3.5 0H18.5C20.433 0 22 1.567 22 3.5V26.5C22 28.433 20.433 30 18.5 30H3.5C1.567 30 0 28.433 0 26.5V3.5C0 1.567 1.567 0 3.5 0ZM3.5 2C2.67157 2 2 2.67157 2 3.5V26.5C2 27.3284 2.67157 28 3.5 28H18.5C19.3284 28 20 27.3284 20 26.5V3.5C20 2.67157 19.3284 2 18.5 2H3.5Z" fill="black"/>
<path fill-rule="evenodd" clip-rule="evenodd" d="M17 16H5V14H17V16Z" fill="black"/>
<path fill-rule="evenodd" clip-rule="evenodd" d="M15 15C15 17.2091 13.2091 19 11 19C8.79086 19 7 17.2091 7 15C7 12.7909 8.79086 11 11 11C13.2091 11 15 12.7909 15 15ZM11 17C12.1046 17 13 16.1046 13 15C13 13.8954 12.1046 13 11 13C9.89543 13 9 13.8954 9 15C9 16.1046 9.89543 17 11 17Z" fill="black"/>
<path fill-rule="evenodd" clip-rule="evenodd" d="M7 23C7 21.8954 7.89543 21 9 21H13C14.1046 21 15 21.8954 15 23V25C15 26.1046 14.1046 27 13 27H9C7.89543 27 7 26.1046 7 25V23ZM9 23V25H13V23H9Z" fill="black"/>
</svg>
