<svg width="22" height="25" viewBox="0 0 22 25" fill="none" xmlns="http://www.w3.org/2000/svg">
<path fill-rule="evenodd" clip-rule="evenodd" d="M10.0693 14.1215L12.5368 14.1213C12.991 14.1213 13.3592 14.4896 13.3592 14.9438L13.3592 17.4112C13.3592 17.8654 12.991 18.2336 12.5367 18.2336C12.0825 18.2336 11.7143 17.8654 11.7143 17.4112L11.7143 16.9294L9.82846 18.8152C9.50727 19.1364 8.98651 19.1364 8.66532 18.8152C8.34413 18.494 8.34413 17.9733 8.66533 17.6521L10.5512 15.7663L10.0693 15.7664C9.61505 15.7664 9.24682 15.3982 9.24682 14.9439C9.24682 14.4897 9.61506 14.1215 10.0693 14.1215Z" fill="black"/>
<path fill-rule="evenodd" clip-rule="evenodd" d="M8 4C8 6.20914 6.20914 8 4 8C1.79086 8 0 6.20914 0 4C0 1.79086 1.79086 0 4 0C6.20914 0 8 1.79086 8 4ZM4 6C5.10457 6 6 5.10457 6 4C6 2.89543 5.10457 2 4 2C2.89543 2 2 2.89543 2 4C2 5.10457 2.89543 6 4 6Z" fill="black"/>
<path fill-rule="evenodd" clip-rule="evenodd" d="M21.75 12.5C21.75 14.7091 19.9591 16.5 17.75 16.5C15.5409 16.5 13.75 14.7091 13.75 12.5C13.75 10.2909 15.5409 8.5 17.75 8.5C19.9591 8.5 21.75 10.2909 21.75 12.5ZM17.75 14.5C18.8546 14.5 19.75 13.6046 19.75 12.5C19.75 11.3954 18.8546 10.5 17.75 10.5C16.6454 10.5 15.75 11.3954 15.75 12.5C15.75 13.6046 16.6454 14.5 17.75 14.5Z" fill="black"/>
<path fill-rule="evenodd" clip-rule="evenodd" d="M8 21C8 23.2091 6.20914 25 4 25C1.79086 25 0 23.2091 0 21C0 18.7909 1.79086 17 4 17C6.20914 17 8 18.7909 8 21ZM4 23C5.10457 23 6 22.1046 6 21C6 19.8954 5.10457 19 4 19C2.89543 19 2 19.8954 2 21C2 22.1046 2.89543 23 4 23Z" fill="black"/>
<path fill-rule="evenodd" clip-rule="evenodd" d="M11.7144 5.92153L9.24693 5.92138C8.7927 5.92138 8.42447 6.28961 8.42447 6.74384L8.42448 9.21123C8.42448 9.66547 8.79271 10.0337 9.24694 10.0337C9.70118 10.0337 10.0694 9.66547 10.0694 9.21124L10.0694 8.72945L11.9552 10.6153C12.2764 10.9365 12.7972 10.9365 13.1184 10.6153C13.4396 10.2941 13.4396 9.77333 13.1184 9.45214L11.2325 7.56631L11.7144 7.56646C12.1686 7.56646 12.5369 7.19823 12.5369 6.744C12.5369 6.28976 12.1686 5.92153 11.7144 5.92153Z" fill="black"/>
</svg>
